<svg version="1.1" width="318.955" height="49.852" viewBox="0 0 318.955 49.852" xmlns="http://www.w3.org/2000/svg" xmlns:xlink="http://www.w3.org/1999/xlink" overflow="hidden"><g id="Group_254" transform="matrix(1,0,0,1,-66.462,-65.37)"><g id="Group_254-2" transform="matrix(1,0,0,1,66.462,77.606)"><path d=" M 72.885 119.44 C 70.9353 118.411 69.3063 116.866 68.176 114.973 C 65.8906 110.971 65.8906 106.06 68.176 102.058 C 69.3061 100.165 70.9352 98.6197 72.885 97.591 C 76.7616 95.6365 81.294 95.4542 85.315 97.091 C 86.9719 97.8005 88.4372 98.8923 89.591 100.277 L 85.991 103.601 C 84.4988 101.776 82.2569 100.731 79.9 100.76 C 78.4984 100.736 77.1145 101.076 75.884 101.747 C 74.7251 102.387 73.7707 103.341 73.131 104.5 C 71.8152 107.016 71.8152 110.017 73.131 112.533 C 73.7708 113.692 74.7252 114.646 75.884 115.285 C 77.1145 115.956 78.4984 116.296 79.9 116.272 C 82.2632 116.3 84.5083 115.241 85.99 113.4 L 89.59 116.724 C 88.4405 118.129 86.9674 119.234 85.297 119.944 C 83.4891 120.702 81.5443 121.08 79.584 121.052 C 77.2512 121.084 74.9477 120.53 72.885 119.44 Z" id="Path_108" fill="#505759" transform="matrix(1,0,0,1,-66.462,-95.982)"/><path d=" M 131.794 128.3 C 130.282 127.524 129.016 126.342 128.139 124.887 C 126.384 121.817 126.384 118.048 128.139 114.978 C 129.017 113.523 130.282 112.342 131.794 111.566 C 135.119 109.926 139.018 109.926 142.343 111.566 C 143.847 112.346 145.106 113.527 145.981 114.978 C 147.737 118.048 147.737 121.817 145.981 124.887 C 145.107 126.339 143.848 127.52 142.343 128.3 C 139.018 129.94 135.119 129.94 131.794 128.3 Z M 140.494 123.692 C 142.272 121.501 142.272 118.365 140.494 116.174 C 139.609 115.241 138.366 114.731 137.081 114.774 C 135.791 114.734 134.545 115.243 133.651 116.174 C 131.848 118.356 131.848 121.51 133.651 123.692 C 134.545 124.623 135.791 125.132 137.081 125.092 C 138.366 125.133 139.606 124.622 140.49 123.689 Z" id="Path_109" fill="#505759" transform="matrix(1,0,0,1,-102.697,-104.597)"/><path d=" M 235.735 111.026 L 227.871 129.665 L 222.293 129.665 L 214.463 111.026 L 220.041 111.026 L 225.203 123.706 L 230.538 111.026 Z" id="Path_110" fill="#505759" transform="matrix(1,0,0,1,-155.307,-105.013)"/><path d=" M 290.577 111.026 L 290.577 129.665 L 285.45 129.665 L 285.45 127.448 C 284.744 128.249 283.868 128.882 282.886 129.301 C 281.867 129.733 280.771 129.952 279.664 129.942 C 277.518 130.055 275.418 129.292 273.844 127.829 C 272.411 126.42 271.695 124.33 271.696 121.558 L 271.696 111.026 L 277.096 111.026 L 277.096 120.761 C 277.096 123.761 278.355 125.261 280.872 125.261 C 282.046 125.312 283.185 124.852 283.994 124 C 284.852 122.943 285.273 121.598 285.172 120.241 L 285.172 111.025 Z" id="Path_111" fill="#505759" transform="matrix(1,0,0,1,-189.663,-105.013)"/><path d=" M 329.167 128.955 C 327.919 128.67 326.726 128.184 325.633 127.517 L 327.433 123.637 C 328.369 124.215 329.384 124.653 330.447 124.937 C 331.573 125.264 332.739 125.432 333.912 125.437 C 336.199 125.437 337.342 124.87 337.342 123.737 C 337.329 123.187 336.944 122.715 336.407 122.594 C 335.472 122.297 334.508 122.099 333.532 122.005 C 332.256 121.826 330.995 121.559 329.756 121.205 C 328.771 120.91 327.88 120.36 327.175 119.611 C 326.398 118.711 326.006 117.541 326.084 116.355 C 326.068 115.226 326.428 114.123 327.106 113.22 C 327.877 112.242 328.91 111.503 330.085 111.089 C 331.566 110.551 333.134 110.293 334.71 110.327 C 336.033 110.328 337.351 110.473 338.642 110.76 C 339.778 110.987 340.872 111.392 341.882 111.96 L 340.082 115.806 C 338.444 114.883 336.592 114.405 334.712 114.42 C 333.819 114.366 332.926 114.533 332.112 114.905 C 331.608 115.12 331.271 115.605 331.246 116.152 C 331.24 116.723 331.627 117.225 332.181 117.364 C 333.152 117.675 334.149 117.895 335.16 118.022 C 336.422 118.218 337.672 118.49 338.902 118.836 C 339.871 119.124 340.745 119.669 341.431 120.412 C 342.19 121.294 342.575 122.437 342.505 123.599 C 342.518 124.715 342.152 125.802 341.466 126.682 C 340.674 127.655 339.623 128.383 338.434 128.782 C 336.915 129.31 335.313 129.562 333.705 129.527 C 332.174 129.529 330.649 129.337 329.167 128.955 Z" id="Path_112" fill="#505759" transform="matrix(1,0,0,1,-222.042,-104.597)"/><path d=" M 193.882 110.261 L 191.512 110.261 C 187.957 110.261 184.105 112.039 184.105 117.961 L 184.105 128.924 L 189.438 128.924 L 189.438 120.035 C 189.438 112.628 195.66 115.295 195.66 115.295 Z" id="Path_113" fill="#505759" transform="matrix(1,0,0,1,-137.083,-104.554)"/></g><g id="Group_255" transform="matrix(1,0,0,1,265.157,77.905)"><path d=" M 735.664 114.9 C 736.12 114.152 736.687 113.477 737.346 112.9 C 735.507 112.074 733.502 111.68 731.487 111.75 C 727.932 111.75 724.08 113.527 724.08 119.45 L 724.08 130.41 L 729.413 130.41 L 729.413 121.521 C 729.413 114.931 733.866 116.314 734.849 116.699 C 735.047 116.069 735.321 115.465 735.664 114.9 Z" id="Path_114" fill="#505759" transform="matrix(1,0,0,1,-659.923,-105.744)"/><path d=" M 582.346 116.793 L 582.346 121.368 L 563.569 121.368 L 563.569 96.732 L 581.9 96.732 L 581.9 101.307 L 569.147 101.307 L 569.147 106.657 L 580.406 106.657 L 580.406 111.092 L 569.147 111.092 L 569.147 116.792 Z" id="Path_115" fill="#505759" transform="matrix(1,0,0,1,-563.569,-96.732)"/><path d=" M 632.9 113.122 C 634.32 114.508 635.03 116.564 635.03 119.289 L 635.03 129.959 L 629.63 129.959 L 629.63 120.12 C 629.722 118.936 629.377 117.759 628.66 116.812 C 627.932 116.051 626.905 115.652 625.854 115.721 C 624.639 115.663 623.456 116.122 622.598 116.985 C 621.718 118.031 621.283 119.381 621.385 120.744 L 621.385 129.96 L 615.985 129.96 L 615.985 111.321 L 621.147 111.321 L 621.147 113.5 C 621.886 112.699 622.799 112.077 623.815 111.681 C 624.93 111.244 626.118 111.026 627.315 111.04 C 629.381 110.953 631.395 111.704 632.9 113.122 Z" id="Path_116" fill="#505759" transform="matrix(1,0,0,1,-595.031,-105.323)"/><path d=" M 688.883 122.165 L 674.783 122.165 C 675.007 123.275 675.652 124.256 676.583 124.902 C 677.626 125.599 678.862 125.948 680.116 125.902 C 680.996 125.918 681.871 125.771 682.697 125.469 C 683.482 125.159 684.197 124.693 684.797 124.1 L 687.672 127.218 C 685.917 129.227 683.353 130.232 679.981 130.232 C 678.05 130.271 676.138 129.849 674.403 129.002 C 672.855 128.246 671.556 127.061 670.661 125.589 C 669.772 124.091 669.316 122.376 669.345 120.635 C 669.321 118.902 669.771 117.195 670.645 115.698 C 671.495 114.247 672.73 113.06 674.214 112.268 C 677.356 110.647 681.085 110.627 684.244 112.216 C 685.705 112.985 686.914 114.157 687.726 115.594 C 688.593 117.155 689.03 118.919 688.991 120.704 C 688.988 120.777 688.952 121.264 688.883 122.165 Z M 676.238 116.171 C 675.391 116.893 674.847 117.907 674.714 119.012 L 683.895 119.012 C 683.754 117.915 683.211 116.909 682.371 116.189 C 681.518 115.477 680.433 115.101 679.322 115.132 C 678.203 115.096 677.107 115.465 676.238 116.171 Z" id="Path_117" fill="#505759" transform="matrix(1,0,0,1,-627.065,-105.323)"/><path d=" M 776.046 111.321 L 776.046 126.842 C 776.046 130.26 775.157 132.801 773.378 134.464 C 771.599 136.127 769.001 136.959 765.583 136.959 C 763.852 136.968 762.128 136.747 760.455 136.301 C 759.002 135.941 757.635 135.293 756.436 134.396 L 758.584 130.516 C 759.469 131.216 760.481 131.739 761.563 132.058 C 762.726 132.433 763.941 132.626 765.163 132.63 C 766.654 132.754 768.136 132.302 769.303 131.366 C 770.264 130.333 770.748 128.944 770.637 127.538 L 770.637 126.738 C 769.108 128.336 766.955 129.184 764.747 129.059 C 763.113 129.077 761.501 128.69 760.053 127.933 C 758.658 127.206 757.489 126.11 756.675 124.763 C 755.013 121.842 755.013 118.261 756.675 115.34 C 757.489 113.994 758.658 112.897 760.053 112.17 C 761.501 111.413 763.113 111.026 764.747 111.044 C 767.111 110.895 769.404 111.887 770.914 113.712 L 770.914 111.321 Z M 769.346 123.36 C 771.17 121.532 771.17 118.571 769.346 116.743 C 768.383 115.881 767.122 115.428 765.83 115.479 C 764.533 115.43 763.267 115.882 762.296 116.743 C 760.469 118.542 760.446 121.482 762.245 123.309 C 762.262 123.326 762.279 123.343 762.296 123.36 C 763.267 124.221 764.533 124.673 765.83 124.624 C 767.121 124.674 768.38 124.221 769.343 123.36 Z" id="Path_118" fill="#505759" transform="matrix(1,0,0,1,-678.745,-105.323)"/><path d=" M 832.394 111.737 L 823.975 131.519 C 823.38 133.307 822.278 134.883 820.805 136.057 C 819.461 136.96 817.868 137.421 816.249 137.374 C 815.273 137.373 814.303 137.221 813.374 136.924 C 812.522 136.675 811.731 136.25 811.053 135.677 L 813.027 131.831 C 813.45 132.205 813.937 132.498 814.465 132.697 C 814.978 132.899 815.524 133.005 816.076 133.009 C 816.719 133.038 817.354 132.849 817.876 132.472 C 818.429 131.987 818.857 131.374 819.123 130.688 L 819.192 130.515 L 811.12 111.737 L 816.7 111.737 L 821.932 124.382 L 827.198 111.737 Z" id="Path_119" fill="#505759" transform="matrix(1,0,0,1,-712.133,-105.739)"/></g><path d=" M 427.211 65.37 C 413.445 65.37 402.285 76.5298 402.285 90.296 C 402.285 104.062 413.445 115.222 427.211 115.222 C 440.976 115.222 452.135 104.065 452.137 90.3 C 452.139 76.5338 440.981 65.3722 427.215 65.37 C 427.214 65.37 427.212 65.37 427.211 65.37 Z M 434.333 102.759 L 420.089 102.759 L 420.089 99.2 L 434.332 99.2 Z M 439.675 95.638 L 414.747 95.638 L 414.747 92.077 L 439.673 92.077 Z M 420.09 88.516 L 420.09 84.955 L 434.333 84.955 L 434.333 88.516 Z M 439.675 81.394 L 414.747 81.394 L 414.747 77.833 L 439.673 77.833 Z" id="Path_120" fill="#FF8200" transform="matrix(1,0,0,1,-201.593,0)"/></g></svg>