<svg version="1.1" width="32" height="32" viewBox="0 0 318.955 49.852" xmlns="http://www.w3.org/2000/svg" xmlns:xlink="http://www.w3.org/1999/xlink" overflow="hidden"><g id="Group_254" transform="matrix(1,0,0,1,-66.462,-65.37)"><g id="Group_254-2" transform="matrix(1,0,0,1,66.462,77.606)"></g><path d=" M 427.211 65.37 C 413.445 65.37 402.285 76.5298 402.285 90.296 C 402.285 104.062 413.445 115.222 427.211 115.222 C 440.976 115.222 452.135 104.065 452.137 90.3 C 452.139 76.5338 440.981 65.3722 427.215 65.37 C 427.214 65.37 427.212 65.37 427.211 65.37 Z M 434.333 102.759 L 420.089 102.759 L 420.089 99.2 L 434.332 99.2 Z M 439.675 95.638 L 414.747 95.638 L 414.747 92.077 L 439.673 92.077 Z M 420.09 88.516 L 420.09 84.955 L 434.333 84.955 L 434.333 88.516 Z M 439.675 81.394 L 414.747 81.394 L 414.747 77.833 L 439.673 77.833 Z" id="Path_120" fill="#FF8200" transform="matrix(1,0,0,1,-201.593,0)"/></g></svg>